<svg width="20" height="20" viewBox="0 0 20 20" fill="none" xmlns="http://www.w3.org/2000/svg">
<path fill-rule="evenodd" clip-rule="evenodd" d="M10 10C12.3012 10 14.1667 7.94798 14.1667 5.41668C14.1667 2.88537 12.3012 0.833344 10 0.833344C7.69881 0.833344 5.83333 2.88537 5.83333 5.41668C5.83333 7.94798 7.69881 10 10 10ZM10 8.16668C8.61929 8.16668 7.5 6.93546 7.5 5.41668C7.5 3.89789 8.61929 2.66668 10 2.66668C11.3807 2.66668 12.5 3.89789 12.5 5.41668C12.5 6.93546 11.3807 8.16668 10 8.16668Z" fill="#0F0F0F"/>
<path fill-rule="evenodd" clip-rule="evenodd" d="M15.9191 11.7573C15.217 11.0528 14.1308 10.9009 13.2634 11.4156C13.1047 11.5098 12.9651 11.5959 12.8363 11.6754C12.4947 11.8862 12.2296 12.0499 11.8878 12.1903C11.4583 12.3667 10.9029 12.5 10 12.5C9.10568 12.5 8.54105 12.3743 8.10508 12.2039C7.71962 12.0534 7.41519 11.8642 7.01404 11.6149C6.9358 11.5663 6.85374 11.5153 6.76683 11.4619C5.89656 10.9277 4.77887 11.0518 4.05345 11.7849C3.73703 12.1047 3.36697 12.5183 3.07075 12.9689C2.78836 13.3984 2.5 13.9698 2.5 14.5834V16.6669C2.5 18.0478 3.61945 19.1667 5 19.1667H15C16.3806 19.1667 17.5 18.0478 17.5 16.6669V14.5834C17.5 13.9617 17.2039 13.3827 16.9163 12.9492C16.6141 12.494 16.2377 12.0769 15.9191 11.7573ZM14.1139 12.8489C14.3132 12.7307 14.565 12.7596 14.7386 12.9338C15.0179 13.214 15.3103 13.5435 15.5276 13.8709C15.7594 14.2201 15.8333 14.46 15.8333 14.5834V16.6669C15.8333 17.127 15.4604 17.5 15 17.5H5C4.5396 17.5 4.16667 17.127 4.16667 16.6669V14.5834C4.16667 14.4624 4.23791 14.2275 4.46344 13.8844C4.67514 13.5624 4.96132 13.237 5.23816 12.9572C5.41176 12.7818 5.67588 12.7479 5.89491 12.8823C5.96385 12.9246 6.03406 12.9685 6.10578 13.0132C6.50782 13.2642 6.95765 13.545 7.49864 13.7564C8.16087 14.0151 8.93682 14.1667 10 14.1667C11.0835 14.1667 11.8594 14.0038 12.5212 13.7319C13.0005 13.535 13.4233 13.2735 13.7965 13.0427C13.9066 12.9746 14.0123 12.9092 14.1139 12.8489Z" fill="#0F0F0F"/>
</svg>
