<svg width="28" height="28" viewBox="0 0 28 28" fill="none" xmlns="http://www.w3.org/2000/svg">
<mask id="mask0_307_565" style="mask-type:alpha" maskUnits="userSpaceOnUse" x="0" y="0" width="28" height="28">
<rect width="28" height="28" fill="#D9D9D9"/>
</mask>
<g mask="url(#mask0_307_565)">
<path d="M7.00001 16.3333C7.00001 17.3444 7.20417 18.3021 7.61251 19.2063C8.02084 20.1104 8.60417 20.9028 9.36251 21.5833C9.34306 21.4861 9.33334 21.3986 9.33334 21.3208V21.0583C9.33334 20.4361 9.45001 19.8528 9.68334 19.3083C9.91667 18.7639 10.257 18.2681 10.7042 17.8208L14 14.5833L17.2958 17.8208C17.7431 18.2681 18.0833 18.7639 18.3167 19.3083C18.55 19.8528 18.6667 20.4361 18.6667 21.0583V21.3208C18.6667 21.3986 18.657 21.4861 18.6375 21.5833C19.3958 20.9028 19.9792 20.1104 20.3875 19.2063C20.7958 18.3021 21 17.3444 21 16.3333C21 15.3611 20.8201 14.4424 20.4604 13.5771C20.1007 12.7118 19.5806 11.9389 18.9 11.2583C18.5111 11.5111 18.1028 11.7007 17.675 11.8271C17.2472 11.9535 16.8097 12.0167 16.3625 12.0167C15.157 12.0167 14.1118 11.6181 13.2271 10.8208C12.3424 10.0236 11.832 9.04167 11.6958 7.875C10.9375 8.51667 10.2667 9.18264 9.68334 9.87292C9.10001 10.5632 8.60903 11.2632 8.21042 11.9729C7.81181 12.6826 7.51042 13.4069 7.30626 14.1458C7.10209 14.8847 7.00001 15.6139 7.00001 16.3333ZM14 17.85L12.3375 19.4833C12.1236 19.6972 11.9583 19.9403 11.8417 20.2125C11.725 20.4847 11.6667 20.7667 11.6667 21.0583C11.6667 21.6806 11.8951 22.2153 12.3521 22.6625C12.809 23.1097 13.3583 23.3333 14 23.3333C14.6417 23.3333 15.191 23.1097 15.6479 22.6625C16.1049 22.2153 16.3333 21.6806 16.3333 21.0583C16.3333 20.7472 16.275 20.4604 16.1583 20.1979C16.0417 19.9354 15.8764 19.6972 15.6625 19.4833L14 17.85ZM14 3.5V7.35C14 8.01111 14.2285 8.56528 14.6854 9.0125C15.1424 9.45972 15.7014 9.68333 16.3625 9.68333C16.7125 9.68333 17.0382 9.61042 17.3396 9.46458C17.641 9.31875 17.9083 9.1 18.1417 8.80833L18.6667 8.16667C20.1056 8.98333 21.2431 10.1208 22.0792 11.5792C22.9153 13.0375 23.3333 14.6222 23.3333 16.3333C23.3333 18.9389 22.4292 21.1458 20.6208 22.9542C18.8125 24.7625 16.6056 25.6667 14 25.6667C11.3945 25.6667 9.18751 24.7625 7.37917 22.9542C5.57084 21.1458 4.66667 18.9389 4.66667 16.3333C4.66667 13.825 5.50764 11.4431 7.18959 9.1875C8.87153 6.93194 11.1417 5.03611 14 3.5Z" fill="#1F1F1F"/>
</g>
</svg>
